<?xml version="1.0" encoding="UTF-8" standalone="no"?>
<!-- Created with Inkscape (http://www.inkscape.org/) -->

<svg
   xmlns:dc="http://purl.org/dc/elements/1.1/"
   xmlns:cc="http://creativecommons.org/ns#"
   xmlns:rdf="http://www.w3.org/1999/02/22-rdf-syntax-ns#"
   xmlns:svg="http://www.w3.org/2000/svg"
   xmlns="http://www.w3.org/2000/svg"
   xmlns:sodipodi="http://sodipodi.sourceforge.net/DTD/sodipodi-0.dtd"
   xmlns:inkscape="http://www.inkscape.org/namespaces/inkscape"
   width="744.09448819"
   height="1052.3622047"
   id="svg2"
   version="1.1"
   inkscape:version="0.48.5 r10040"
   sodipodi:docname="icon.svg">
  <defs
     id="defs4" />
  <sodipodi:namedview
     id="base"
     pagecolor="#ffffff"
     bordercolor="#666666"
     borderopacity="1.0"
     inkscape:pageopacity="0.0"
     inkscape:pageshadow="2"
     inkscape:zoom="1.4"
     inkscape:cx="100.04277"
     inkscape:cy="671.87943"
     inkscape:document-units="px"
     inkscape:current-layer="layer1"
     showgrid="false"
     inkscape:window-width="913"
     inkscape:window-height="730"
     inkscape:window-x="1226"
     inkscape:window-y="312"
     inkscape:window-maximized="0" />
  <metadata
     id="metadata7">
    <rdf:RDF>
      <cc:Work
         rdf:about="">
        <dc:format>image/svg+xml</dc:format>
        <dc:type
           rdf:resource="http://purl.org/dc/dcmitype/StillImage" />
        <dc:title></dc:title>
      </cc:Work>
    </rdf:RDF>
  </metadata>
  <g
     inkscape:label="Layer 1"
     inkscape:groupmode="layer"
     id="layer1">
    <g
       id="g3071"
       inkscape:export-filename="C:\Users\zarizvi\SkyDrive\Programs\GitHub\PHPManager\PhpManager\Content\icon50x50.png"
       inkscape:export-xdpi="40.645157"
       inkscape:export-ydpi="40.645157">
      <rect
         y="265.93362"
         x="116.42857"
         height="110.71429"
         width="110.71429"
         id="rect3069"
         style="fill:#ffffff;fill-opacity:1" />
      <g
         transform="translate(-0.21428141,6.0714505)"
         id="g3050">
        <path
           sodipodi:type="arc"
           style="fill:#5b69a8;fill-opacity:1"
           id="path3036"
           sodipodi:cx="178.57143"
           sodipodi:cy="318.79074"
           sodipodi:rx="89.285713"
           sodipodi:ry="41.42857"
           d="m 267.85714,318.79074 c 0,22.88037 -39.97458,41.42857 -89.28571,41.42857 -49.31114,0 -89.285717,-18.5482 -89.285717,-41.42857 0,-22.88037 39.974577,-41.42857 89.285717,-41.42857 49.31113,0 89.28571,18.5482 89.28571,41.42857 z"
           transform="matrix(0.592,0,0,0.67241378,66.285714,100.86003)" />
        <path
           sodipodi:type="inkscape:offset"
           inkscape:radius="1.7170585"
           inkscape:original="M 164.4375 295.15625 L 164.4375 323.78125 L 169.9375 323.78125 L 169.9375 313.40625 C 169.93749 311.66147 170.10546 310.32944 170.4375 309.4375 C 170.76952 308.54559 171.28384 307.88022 172 307.4375 C 172.71613 306.99481 173.52603 306.78127 174.4375 306.78125 C 175.23176 306.78127 175.91014 306.93621 176.4375 307.28125 C 176.96483 307.62632 177.3229 308.10158 177.53125 308.6875 C 177.73957 309.27345 177.84373 310.66928 177.84375 312.84375 L 177.84375 323.78125 L 183.34375 323.78125 L 183.34375 311.625 C 183.34373 309.76303 183.25128 308.38543 183.0625 307.5 C 182.87368 306.6146 182.5143 305.82293 182 305.09375 C 181.48566 304.3646 180.70311 303.75002 179.6875 303.28125 C 178.67186 302.81252 177.54425 302.59377 176.28125 302.59375 C 173.8203 302.59377 171.70832 303.61721 169.9375 305.6875 L 169.9375 295.15625 L 164.4375 295.15625 z M 151.4375 302.59375 C 150.05728 302.59377 148.78905 302.91148 147.65625 303.5625 C 146.52343 304.21356 145.6328 305.0521 144.96875 306.09375 L 144.96875 303.0625 L 139.84375 303.0625 L 139.84375 331.6875 L 145.34375 331.6875 L 145.34375 321.21875 C 146.37239 322.32552 147.35025 323.10677 148.28125 323.5625 C 149.21223 324.01823 150.2604 324.25 151.40625 324.25 C 153.81509 324.25 155.86977 323.29557 157.5625 321.375 C 159.25519 319.45443 160.09373 316.77605 160.09375 313.3125 C 160.09373 309.94012 159.24217 307.29429 157.5625 305.40625 C 155.88279 303.51825 153.84634 302.59377 151.4375 302.59375 z M 200.34375 302.59375 C 198.96353 302.59377 197.6953 302.91148 196.5625 303.5625 C 195.42968 304.21356 194.53905 305.0521 193.875 306.09375 L 193.875 303.0625 L 188.75 303.0625 L 188.75 331.6875 L 194.25 331.6875 L 194.25 321.21875 C 195.27864 322.32552 196.2565 323.10677 197.1875 323.5625 C 198.11848 324.01823 199.16665 324.25 200.3125 324.25 C 202.72134 324.25 204.77602 323.29557 206.46875 321.375 C 208.16144 319.45443 208.99998 316.77605 209 313.3125 C 208.99998 309.94012 208.14842 307.29429 206.46875 305.40625 C 204.78904 303.51825 202.75259 302.59377 200.34375 302.59375 z M 149.96875 306.90625 C 151.2578 306.90627 152.31509 307.44533 153.1875 308.5 C 154.05988 309.5547 154.49998 311.16928 154.5 313.34375 C 154.49998 315.67449 154.09634 317.35287 153.25 318.375 C 152.40363 319.39714 151.33853 319.90625 150.0625 319.90625 C 148.73436 319.90625 147.61197 319.33204 146.6875 318.21875 C 145.76301 317.10548 145.28124 315.39324 145.28125 313.0625 C 145.28124 311.03126 145.73957 309.50392 146.625 308.46875 C 147.51041 307.43361 148.62759 306.90627 149.96875 306.90625 z M 198.875 306.90625 C 200.16405 306.90627 201.22134 307.44533 202.09375 308.5 C 202.96613 309.5547 203.40623 311.16928 203.40625 313.34375 C 203.40623 315.67449 203.00259 317.35287 202.15625 318.375 C 201.30988 319.39714 200.24478 319.90625 198.96875 319.90625 C 197.64061 319.90625 196.51822 319.33204 195.59375 318.21875 C 194.66926 317.10548 194.18749 315.39324 194.1875 313.0625 C 194.18749 311.03126 194.64582 309.50392 195.53125 308.46875 C 196.41666 307.43361 197.53384 306.90627 198.875 306.90625 z "
           style="font-size:40px;font-style:normal;font-weight:normal;line-height:125%;letter-spacing:0px;word-spacing:0px;fill:#ffffff;fill-opacity:1;stroke:none;font-family:Sans"
           id="path3001-1"
           d="m 164.28125,293.4375 a 1.7172302,1.7172302 0 0 0 -1.5625,1.71875 l 0,28.625 A 1.7172302,1.7172302 0 0 0 164.4375,325.5 l 5.5,0 a 1.7172302,1.7172302 0 0 0 1.71875,-1.71875 l 0,-10.375 c -1e-5,-1.63457 0.17191,-2.82944 0.375,-3.375 0.22717,-0.61024 0.50059,-0.89355 0.875,-1.125 0.43369,-0.26809 0.88794,-0.40624 1.53125,-0.40625 0.57098,10e-6 0.90261,0.11414 1.0625,0.21875 0.22089,0.14454 0.30777,0.2543 0.40625,0.53125 -0.0195,-0.0548 0.21873,1.47411 0.21875,3.59375 l 0,10.9375 a 1.7172302,1.7172302 0 0 0 1.71875,1.71875 l 5.5,0 a 1.7172302,1.7172302 0 0 0 1.71875,-1.71875 l 0,-12.15625 c -2e-5,-1.9188 -0.0718,-3.33991 -0.3125,-4.46875 -0.23797,-1.11586 -0.70921,-2.16284 -1.34375,-3.0625 -0.72524,-1.02813 -1.77063,-1.80757 -3,-2.375 -1.27013,-0.58618 -2.66375,-0.84373 -4.125,-0.84375 -1.66738,10e-6 -3.1945,0.541 -4.625,1.34375 l 0,-7.0625 a 1.7172302,1.7172302 0 0 0 -1.71875,-1.71875 l -5.5,0 a 1.7172302,1.7172302 0 0 0 -0.15625,0 z m -12.84375,7.4375 c -1.6437,2e-5 -3.22142,0.38086 -4.625,1.1875 -0.1172,0.0674 -0.19882,0.17857 -0.3125,0.25 a 1.7172302,1.7172302 0 0 0 -1.53125,-0.96875 l -5.125,0 a 1.7172302,1.7172302 0 0 0 -1.71875,1.71875 l 0,28.625 a 1.7172302,1.7172302 0 0 0 1.71875,1.71875 l 5.5,0 a 1.7172302,1.7172302 0 0 0 1.71875,-1.71875 l 0,-6.96875 c 0.1615,0.0929 0.30431,0.29451 0.46875,0.375 1.18161,0.57842 2.49761,0.875 3.875,0.875 2.8624,0 5.47562,-1.24281 7.4375,-3.46875 2.03028,-2.30361 2.96873,-5.44682 2.96875,-9.1875 -2e-5,-3.66142 -0.95114,-6.7946 -2.96875,-9.0625 -1.95279,-2.19495 -4.5581,-3.37498 -7.40625,-3.375 z m 48.90625,0 c -1.6437,2e-5 -3.22142,0.38086 -4.625,1.1875 -0.1172,0.0674 -0.19882,0.17857 -0.3125,0.25 a 1.7172302,1.7172302 0 0 0 -1.53125,-0.96875 l -5.125,0 a 1.7172302,1.7172302 0 0 0 -1.71875,1.71875 l 0,28.625 a 1.7172302,1.7172302 0 0 0 1.71875,1.71875 l 5.5,0 a 1.7172302,1.7172302 0 0 0 1.71875,-1.71875 l 0,-6.96875 c 0.1615,0.0929 0.30431,0.29451 0.46875,0.375 1.18161,0.57842 2.49761,0.875 3.875,0.875 2.8624,0 5.47562,-1.24281 7.4375,-3.46875 2.03028,-2.30361 2.96873,-5.44682 2.96875,-9.1875 -2e-5,-3.66142 -0.95114,-6.7946 -2.96875,-9.0625 -1.95279,-2.19495 -4.5581,-3.37498 -7.40625,-3.375 z m -50.375,7.75 c 0.81037,10e-6 1.28497,0.21767 1.90625,0.96875 0.50461,0.61007 0.90623,1.8072 0.90625,3.75 -2e-5,2.13251 -0.41525,3.41999 -0.84375,3.9375 -0.57369,0.69283 -1.05568,0.90625 -1.875,0.90625 -0.83324,0 -1.38902,-0.25146 -2.0625,-1.0625 -0.55898,-0.67312 -1.00001,-1.96838 -1,-4.0625 -1e-5,-1.77294 0.4041,-2.84515 0.9375,-3.46875 0.6089,-0.71187 1.14017,-0.96874 2.03125,-0.96875 z m 48.90625,0 c 0.81037,10e-6 1.28497,0.21767 1.90625,0.96875 0.50461,0.61007 0.90623,1.8072 0.90625,3.75 -2e-5,2.13251 -0.41525,3.41999 -0.84375,3.9375 -0.57369,0.69283 -1.05568,0.90625 -1.875,0.90625 -0.83324,0 -1.38902,-0.25146 -2.0625,-1.0625 -0.55898,-0.67312 -1.00001,-1.96838 -1,-4.0625 -1e-5,-1.77294 0.4041,-2.84515 0.9375,-3.46875 0.6089,-0.71187 1.14017,-0.96874 2.03125,-0.96875 z"
           transform="translate(-0.13616055,0.36887828)" />
        <path
           sodipodi:type="inkscape:offset"
           inkscape:radius="0"
           inkscape:original="M 164.4375 295.15625 L 164.4375 323.78125 L 169.9375 323.78125 L 169.9375 313.40625 C 169.93749 311.66147 170.10546 310.32944 170.4375 309.4375 C 170.76952 308.54559 171.28384 307.88022 172 307.4375 C 172.71613 306.99481 173.52603 306.78127 174.4375 306.78125 C 175.23176 306.78127 175.91014 306.93621 176.4375 307.28125 C 176.96483 307.62632 177.3229 308.10158 177.53125 308.6875 C 177.73957 309.27345 177.84373 310.66928 177.84375 312.84375 L 177.84375 323.78125 L 183.34375 323.78125 L 183.34375 311.625 C 183.34373 309.76303 183.25128 308.38543 183.0625 307.5 C 182.87368 306.6146 182.5143 305.82293 182 305.09375 C 181.48566 304.3646 180.70311 303.75002 179.6875 303.28125 C 178.67186 302.81252 177.54425 302.59377 176.28125 302.59375 C 173.8203 302.59377 171.70832 303.61721 169.9375 305.6875 L 169.9375 295.15625 L 164.4375 295.15625 z M 151.4375 302.59375 C 150.05728 302.59377 148.78905 302.91148 147.65625 303.5625 C 146.52343 304.21356 145.6328 305.0521 144.96875 306.09375 L 144.96875 303.0625 L 139.84375 303.0625 L 139.84375 331.6875 L 145.34375 331.6875 L 145.34375 321.21875 C 146.37239 322.32552 147.35025 323.10677 148.28125 323.5625 C 149.21223 324.01823 150.2604 324.25 151.40625 324.25 C 153.81509 324.25 155.86977 323.29557 157.5625 321.375 C 159.25519 319.45443 160.09373 316.77605 160.09375 313.3125 C 160.09373 309.94012 159.24217 307.29429 157.5625 305.40625 C 155.88279 303.51825 153.84634 302.59377 151.4375 302.59375 z M 200.34375 302.59375 C 198.96353 302.59377 197.6953 302.91148 196.5625 303.5625 C 195.42968 304.21356 194.53905 305.0521 193.875 306.09375 L 193.875 303.0625 L 188.75 303.0625 L 188.75 331.6875 L 194.25 331.6875 L 194.25 321.21875 C 195.27864 322.32552 196.2565 323.10677 197.1875 323.5625 C 198.11848 324.01823 199.16665 324.25 200.3125 324.25 C 202.72134 324.25 204.77602 323.29557 206.46875 321.375 C 208.16144 319.45443 208.99998 316.77605 209 313.3125 C 208.99998 309.94012 208.14842 307.29429 206.46875 305.40625 C 204.78904 303.51825 202.75259 302.59377 200.34375 302.59375 z M 149.96875 306.90625 C 151.2578 306.90627 152.31509 307.44533 153.1875 308.5 C 154.05988 309.5547 154.49998 311.16928 154.5 313.34375 C 154.49998 315.67449 154.09634 317.35287 153.25 318.375 C 152.40363 319.39714 151.33853 319.90625 150.0625 319.90625 C 148.73436 319.90625 147.61197 319.33204 146.6875 318.21875 C 145.76301 317.10548 145.28124 315.39324 145.28125 313.0625 C 145.28124 311.03126 145.73957 309.50392 146.625 308.46875 C 147.51041 307.43361 148.62759 306.90627 149.96875 306.90625 z M 198.875 306.90625 C 200.16405 306.90627 201.22134 307.44533 202.09375 308.5 C 202.96613 309.5547 203.40623 311.16928 203.40625 313.34375 C 203.40623 315.67449 203.00259 317.35287 202.15625 318.375 C 201.30988 319.39714 200.24478 319.90625 198.96875 319.90625 C 197.64061 319.90625 196.51822 319.33204 195.59375 318.21875 C 194.66926 317.10548 194.18749 315.39324 194.1875 313.0625 C 194.18749 311.03126 194.64582 309.50392 195.53125 308.46875 C 196.41666 307.43361 197.53384 306.90627 198.875 306.90625 z "
           style="font-size:40px;font-style:normal;font-weight:normal;line-height:125%;letter-spacing:0px;word-spacing:0px;fill:#000000;fill-opacity:1;stroke:none;font-family:Sans"
           id="path3001"
           d="m 164.4375,295.15625 0,28.625 5.5,0 0,-10.375 c -1e-5,-1.74478 0.16796,-3.07681 0.5,-3.96875 0.33202,-0.89191 0.84634,-1.55728 1.5625,-2 0.71613,-0.44269 1.52603,-0.65623 2.4375,-0.65625 0.79426,2e-5 1.47264,0.15496 2,0.5 0.52733,0.34507 0.8854,0.82033 1.09375,1.40625 0.20832,0.58595 0.31248,1.98178 0.3125,4.15625 l 0,10.9375 5.5,0 0,-12.15625 c -2e-5,-1.86197 -0.0925,-3.23957 -0.28125,-4.125 -0.18882,-0.8854 -0.5482,-1.67707 -1.0625,-2.40625 -0.51434,-0.72915 -1.29689,-1.34373 -2.3125,-1.8125 -1.01564,-0.46873 -2.14325,-0.68748 -3.40625,-0.6875 -2.46095,2e-5 -4.57293,1.02346 -6.34375,3.09375 l 0,-10.53125 -5.5,0 z m -13,7.4375 c -1.38022,2e-5 -2.64845,0.31773 -3.78125,0.96875 -1.13282,0.65106 -2.02345,1.4896 -2.6875,2.53125 l 0,-3.03125 -5.125,0 0,28.625 5.5,0 0,-10.46875 c 1.02864,1.10677 2.0065,1.88802 2.9375,2.34375 0.93098,0.45573 1.97915,0.6875 3.125,0.6875 2.40884,0 4.46352,-0.95443 6.15625,-2.875 1.69269,-1.92057 2.53123,-4.59895 2.53125,-8.0625 -2e-5,-3.37238 -0.85158,-6.01821 -2.53125,-7.90625 -1.67971,-1.888 -3.71616,-2.81248 -6.125,-2.8125 z m 48.90625,0 c -1.38022,2e-5 -2.64845,0.31773 -3.78125,0.96875 -1.13282,0.65106 -2.02345,1.4896 -2.6875,2.53125 l 0,-3.03125 -5.125,0 0,28.625 5.5,0 0,-10.46875 c 1.02864,1.10677 2.0065,1.88802 2.9375,2.34375 0.93098,0.45573 1.97915,0.6875 3.125,0.6875 2.40884,0 4.46352,-0.95443 6.15625,-2.875 1.69269,-1.92057 2.53123,-4.59895 2.53125,-8.0625 -2e-5,-3.37238 -0.85158,-6.01821 -2.53125,-7.90625 -1.67971,-1.888 -3.71616,-2.81248 -6.125,-2.8125 z m -50.375,4.3125 c 1.28905,2e-5 2.34634,0.53908 3.21875,1.59375 0.87238,1.0547 1.31248,2.66928 1.3125,4.84375 -2e-5,2.33074 -0.40366,4.00912 -1.25,5.03125 -0.84637,1.02214 -1.91147,1.53125 -3.1875,1.53125 -1.32814,0 -2.45053,-0.57421 -3.375,-1.6875 -0.92449,-1.11327 -1.40626,-2.82551 -1.40625,-5.15625 -1e-5,-2.03124 0.45832,-3.55858 1.34375,-4.59375 0.88541,-1.03514 2.00259,-1.56248 3.34375,-1.5625 z m 48.90625,0 c 1.28905,2e-5 2.34634,0.53908 3.21875,1.59375 0.87238,1.0547 1.31248,2.66928 1.3125,4.84375 -2e-5,2.33074 -0.40366,4.00912 -1.25,5.03125 -0.84637,1.02214 -1.91147,1.53125 -3.1875,1.53125 -1.32814,0 -2.45053,-0.57421 -3.375,-1.6875 -0.92449,-1.11327 -1.40626,-2.82551 -1.40625,-5.15625 -1e-5,-2.03124 0.45832,-3.55858 1.34375,-4.59375 0.88541,-1.03514 2.00259,-1.56248 3.34375,-1.5625 z" />
      </g>
    </g>
  </g>
</svg>
